<?xml version="1.0" standalone="no"?>
<!DOCTYPE svg PUBLIC "-//W3C//DTD SVG 1.1//EN" "http://www.w3.org/Graphics/SVG/1.1/DTD/svg11.dtd" >
<svg xmlns="http://www.w3.org/2000/svg">
<metadata></metadata>
<defs>
<font id="kelregular" horiz-adv-x="1024" >
<font-face units-per-em="2048" ascent="1536" descent="-512" />
<missing-glyph horiz-adv-x="500" />
<glyph horiz-adv-x="0" />
<glyph unicode="&#xd;" />
<glyph horiz-adv-x="0" />
<glyph horiz-adv-x="0" />
<glyph unicode=" " />
<glyph unicode="!" horiz-adv-x="403" d="M121 20v54v4v2v2v55q0 12 12 13h119q12 0 12 -13v-14v-92v-11q0 -12 -12 -12h-119q-12 0 -12 12zM121 389v1055q0 12 12 12h119q12 0 12 -12v-1178q-6 2 -16 6t-21.5 8.5t-21.5 7.5t-15 5q-33 12 -50 37.5t-19 58.5z" />
<glyph unicode="&#x22;" horiz-adv-x="790" d="M184 696v230q0 14 11 14h131q12 0 12 -14v-95q-2 -37 -20.5 -65.5t-53.5 -40.5q-6 -2 -17 -5t-23.5 -8t-24 -9.5t-15.5 -6.5zM430 696v230q0 14 12 14h131q10 0 11 -14v-95q-2 -37 -21.5 -65.5t-50.5 -40.5q-6 -2 -17.5 -5t-23.5 -8t-23.5 -9.5t-17.5 -6.5z" />
<glyph unicode="#" horiz-adv-x="1730" d="M133 412v116q0 12 10 13h371h14h770h248q12 0 13 -13v-116q0 -12 -13 -13h-368h-7h-780h-248q-10 0 -10 13zM133 934v117q0 12 10 12h371h14h770h248q12 0 13 -12v-117q0 -12 -13 -12h-368h-7h-780h-248q-10 0 -10 12zM514 29v370v7v780v246q0 12 12 12h117q12 0 12 -12 v-369v-14v-770v-250q0 -10 -12 -11h-117q-12 0 -12 11zM1036 29v370v7v780v246q0 12 13 12h116q12 0 13 -12v-369v-14v-770v-250q0 -10 -13 -11h-116q-12 0 -13 11z" />
<glyph unicode="$" horiz-adv-x="1196" d="M119 1081q2 84 22.5 147.5t67.5 106.5t127 67.5t199 31.5v55v172q10 -4 33.5 -12.5t31.5 -12.5q55 -23 62 -86v-116h6q119 -6 196.5 -43t122.5 -93.5t63.5 -127t18.5 -140.5v-33v-137q-10 4 -33.5 13.5t-29.5 13.5q-29 8 -45.5 30.5t-18.5 51.5v28q0 160 -69.5 231.5 t-210.5 82.5v-537q76 -10 128 -18.5t89 -18.5q113 -33 155.5 -108.5t42.5 -220.5q0 -96 -19.5 -170t-65.5 -124.5t-126 -79t-198 -34.5h-6v-51v-176q-10 4 -34 13t-32 13q-27 10 -42 33t-19 51v119q-119 6 -195 39t-120 86t-62.5 124t-20.5 152v33v137q8 -4 32 -12t34 -10 q27 -10 42 -33.5t17 -50.5q0 -4 2 -10q0 -4 1 -10.5t1 -10.5q0 -158 66.5 -229.5t202.5 -79.5v539q-10 2 -20.5 2t-18.5 4q-98 12 -166 27.5t-110 38t-62.5 54t-26.5 76.5q-10 74 -11 128.5t-1 84.5zM242 1081q0 -35 4 -89t20 -101q8 -29 38 -46.5t68 -27.5t82 -15t81 -11 v313v207q-70 -2 -124.5 -12.5t-91 -35t-56 -68.5t-21.5 -114zM662 123q80 2 135 17.5t90 51t51 97t16 155.5q0 80 -32.5 119t-79.5 60q-27 10 -77 17t-103 13v-164v-366z" />
<glyph unicode="%" horiz-adv-x="1157" d="M168 1235q0 43 16.5 80t46 64.5t67.5 44t81 16.5q41 0 79 -16.5t65.5 -44t44 -64.5t16.5 -80t-16.5 -81t-44 -67.5t-65.5 -46t-79 -16.5q-43 0 -81 16.5t-67.5 46t-46 67.5t-16.5 81zM170 58.5q-2 31.5 10 60.5l101 184l637 1155q6 -6 25.5 -28.5t25.5 -32.5 q23 -23 24.5 -54.5t-10.5 -62.5l-102 -184l-635 -1155q-6 10 -25.5 31.5t-25.5 29.5q-23 25 -25 56.5zM180 1235q0 -84 57.5 -141.5t141.5 -57.5q39 0 74.5 15.5t62.5 42t42 63.5t15 78q0 39 -15 75t-42 62.5t-62.5 42t-74.5 15.5q-41 0 -78 -15.5t-63.5 -42t-42 -62.5 t-15.5 -75zM193 1235q0 37 14 70.5t39.5 58.5t59.5 39t73 14q76 0 129 -53t53 -129q0 -39 -14.5 -73t-39 -59.5t-58 -39.5t-70.5 -14q-78 0 -132 54t-54 132zM238 1235q0 -59 41 -100t100 -41q55 0 96 41t41 100q0 55 -41 96t-96 41q-59 0 -100 -41t-41 -96zM250 1235 q0 51 38 88t91 37q51 0 88 -37t37 -88q0 -53 -37 -91t-88 -38q-53 0 -91 38t-38 91zM260 1235q0 -51 34 -85t85 -34q47 0 81 34t34 85q0 47 -34 81t-81 34q-51 0 -85 -34t-34 -81zM580 174q0 41 16 79t44 65.5t65.5 44t78.5 16.5q43 0 81 -16.5t68 -44t46 -65.5t16 -79 q0 -43 -16 -81t-46 -67.5t-68 -46t-81 -16.5q-41 0 -78.5 16.5t-65.5 46t-44 67.5t-16 81zM590 174q0 -41 15.5 -78t42 -63.5t62 -42t74.5 -15.5q84 0 141.5 57.5t57.5 141.5q0 39 -15.5 75t-42 62.5t-63.5 42t-78 15.5q-39 0 -74.5 -15.5t-62 -42t-42 -62.5t-15.5 -75z M602 174q0 76 53 129t129 53q39 0 73 -14t59.5 -38.5t40 -58.5t14.5 -71q0 -78 -54.5 -132t-132.5 -54q-37 0 -70.5 14t-58 40t-39 59.5t-14.5 72.5zM647 174q0 -59 41 -100t96 -41q59 0 100.5 41t41.5 100q0 55 -41 96t-101 41q-55 0 -96 -41t-41 -96zM659 174q0 51 37 88 t88 37q53 0 91 -37t38 -88q0 -53 -37.5 -91t-91.5 -38q-51 0 -88 38t-37 91zM670 174q0 -51 33.5 -85t80.5 -34q51 0 85 34t34 85q0 47 -34 81t-85 34q-47 0 -80.5 -34t-33.5 -81z" />
<glyph unicode="'" horiz-adv-x="382" d="M125 1174v233q0 14 14 14h131q12 0 13 -14v-96q-2 -37 -20.5 -67t-53.5 -42q-10 -4 -41 -14t-43 -14z" />
<glyph unicode="(" horiz-adv-x="839" d="M135 436v578q4 94 34 179t86 148.5t141 100.5t198 37h131q-2 -4 -8 -15.5t-12.5 -24t-11.5 -23.5t-7 -17q-31 -53 -90 -64q-160 -12 -237.5 -99t-79.5 -261v-500q2 -174 79.5 -261t237.5 -99q59 -10 90 -66q2 -4 7 -15t11.5 -23.5t12.5 -24t8 -15.5h-131q-113 0 -198 37 t-141 100.5t-86 147.5t-34 180z" />
<glyph unicode=")" horiz-adv-x="808" d="M98 6q2 4 8.5 15.5t12.5 23.5t12 23.5t8 15.5q29 55 88 66q160 12 238 99t80 261v500q-2 174 -80 261t-238 99q-59 10 -88 64q-2 6 -8 17t-12 23.5t-12.5 23.5t-8.5 15h131q113 0 197 -36.5t141.5 -100t86 -148.5t32.5 -179v-578q-4 -96 -32.5 -180t-86 -147.5 t-141.5 -100.5t-197 -37h-131z" />
<glyph unicode="*" horiz-adv-x="1017" d="M143 688v74q0 8 9 8h120h246h293h76q4 0 4 -8v-74q0 -6 -4 -6h-121h-4h-244h-291h-4h-71q-8 0 -9 6zM227 485q-6 6 0 13l23 22q10 10 26.5 25.5t36.5 36.5q6 8 55.5 56t118.5 118l207 207l56 53q2 6 8 0l49 -53q8 0 0 -9l-23 -22l-26.5 -26.5t-34.5 -37.5 q-8 -6 -57.5 -55t-116.5 -119l-207 -205l-53 -53q-6 -6 -8 0zM227 954q-6 6 0 9l54 53q2 6 8 0l86 -86l174 -174l205 -207l53 -51q6 -6 0 -13l-49 -49q-6 -6 -8 0q-12 10 -25 23q-12 10 -27.5 25.5l-35.5 35.5v2l-175 174l-206 205zM473 356v121v4v246v289v4v72q0 8 8 8h74 q6 0 6 -8v-121v-246v-293v-76q0 -4 -6 -4h-74q-8 0 -8 4z" />
<glyph unicode="+" horiz-adv-x="1017" d="M129 668v73q0 6 6 7h123h2h207v256v75q0 6 6 6h74q6 0 6 -6v-123v-2v-206h256h76q6 0 6 -7v-73q0 -6 -6 -6h-123h-209v-256v-76q0 -6 -6 -6h-74q-6 0 -6 6v123v209h-256h-76q-6 0 -6 6z" />
<glyph unicode="," horiz-adv-x="397" d="M113 -8q0 14 12 14h119q12 0 12 -14v-37q-2 -33 -19.5 -59.5t-50.5 -36.5q-8 -4 -35.5 -14.5t-37.5 -14.5v162z" />
<glyph unicode="-" horiz-adv-x="927" d="M125 641v70q0 6 6 6h115h231h273h71q6 0 6 -6v-70q0 -6 -6 -6h-114h-232h-272h-72q-6 0 -6 6z" />
<glyph unicode="." horiz-adv-x="346" d="M94 14v58v2v2v55q0 14 12 14h119q12 0 13 -14v-12v-90v-15q0 -12 -13 -12h-119q-12 0 -12 12z" />
<glyph unicode="/" horiz-adv-x="980" d="M96 68l570 1306q16 29 42.5 46.5t61.5 15.5q4 0 14.5 -1t22.5 -1t22.5 -1t16.5 -1l-619 -1422q-4 -10 -14 -6l-113 47q-4 2 -4 17z" />
<glyph unicode="0" horiz-adv-x="1069" d="M88 444v662q4 86 23.5 160.5t66.5 131t127 91.5t207 41h49q125 -6 206 -41t128 -91.5t66.5 -131t23.5 -160.5v-662q-4 -86 -23.5 -161.5t-66.5 -132t-128 -90t-206 -40.5h-49q-127 6 -207 40t-127 90.5t-66.5 132t-23.5 161.5zM219 481q0 -86 15.5 -147.5t50 -102.5 t91 -60t142.5 -19h37q86 0 143.5 19t92 60t50 102.5t17.5 147.5v588q-2 86 -17.5 148.5t-50 103.5t-92 61.5t-143.5 20.5h-37q-86 0 -142.5 -20.5t-91 -61.5t-50 -103.5t-15.5 -148.5v-588z" />
<glyph unicode="1" horiz-adv-x="702" d="M268 6v1395q0 33 14.5 58.5t47.5 25.5q16 14 38.5 19t22.5 22v-1520h-104h-19z" />
<glyph unicode="2" horiz-adv-x="1263" d="M148 125.5q4 28.5 24 52.5q207 221 375 400q72 76 140.5 150.5t124.5 135t94 102.5t46 54q12 18 20.5 38.5t11.5 41t4 37t1 26.5q-6 119 -76.5 178.5t-218.5 59.5h-104q-90 0 -148.5 -20.5t-94.5 -61.5t-50 -104.5t-16 -151.5v-24.5t2 -51.5q0 -33 2 -72q-6 -70 -66 -92 q-8 -4 -33.5 -12t-33.5 -10v299q2 88 22.5 164.5t68.5 135t131 94.5t212 42h112q115 -6 193 -31.5t127 -68.5t72.5 -102.5t29.5 -133.5q2 -25 3 -56.5t-3 -66.5t-16 -68.5t-37 -60.5q-4 -6 -40 -43t-90 -95t-123 -131t-138 -149q-166 -176 -373 -399h830q-4 -10 -12.5 -36.5 t-10.5 -37.5q-12 -29 -37.5 -44t-54.5 -19h-811q-8 0 -8 8q-6 8 -20.5 32.5t-18.5 35.5q-16 27 -12 55.5z" />
<glyph unicode="3" horiz-adv-x="1148" d="M150 14q4 10 13 35t11 35q27 57 90 61h264q174 0 257 79t87 251v221h-483q-8 0 -8 11v108q0 12 8 12h483v240q-4 172 -87 251t-257 79h-264q-29 4 -53.5 19t-36.5 44q-2 10 -11 34t-13 34h399q135 -2 221 -35t135 -90t69.5 -134t24.5 -165v-666q-4 -90 -24.5 -165.5 t-69.5 -133t-135 -90.5t-221 -35h-399z" />
<glyph unicode="4" horiz-adv-x="1232" d="M109 537q2 4 28.5 46t70.5 110.5t99 154.5t113.5 176t116 177t103.5 158t75.5 117t36.5 54q12 23 45 22q16 0 26.5 -13t10.5 -28v-895h161q18 0 29 -2q29 0 54.5 -18t35.5 -47q4 -10 12.5 -30.5t12.5 -31.5h-305v-473q0 -8 -9 -8h-106q-10 0 -10 8v473h-531q-23 0 -40 1 t-27 12q-14 20 -2 37zM309 616h400v617q-49 -78 -107.5 -168t-114 -177t-103.5 -160t-75 -112z" />
<glyph unicode="5" horiz-adv-x="1243" d="M125 702v56v4v364q2 86 21.5 159t66.5 126t128 84t208 33h432q29 -4 52.5 -17.5t33.5 -42.5q4 -10 13.5 -33.5t13.5 -33.5l-496 -4q-174 0 -257 -68.5t-85 -238.5v-189q94 88 295 96h133q117 -6 194.5 -34.5t127 -77.5t71 -114.5t25.5 -141.5q2 -18 3 -50t1 -63v-76 q-4 -86 -23.5 -160.5t-66.5 -131t-128 -90t-206 -40.5h-133q-156 6 -243 56.5t-128 130.5q-10 16 -14 37.5t-8 40.5v2l-4 116q12 -4 41.5 -10t39.5 -10q23 -6 39.5 -17.5t26.5 -21.5q6 -10 9 -21.5t7 -25.5t10.5 -29.5t22.5 -32.5l45 -45q39 -20 90.5 -31.5t114.5 -11.5h35 q174 0 258 81t86 253v74q-4 162 -67.5 238.5t-231.5 76.5h-121q-117 0 -181.5 -42t-94.5 -119v-5q0 -12 -11 -12h-133q-12 0 -12 12z" />
<glyph unicode="6" horiz-adv-x="1159" d="M80 412v26v49v635q2 84 20.5 158t64.5 129t125 88t202 39h131q123 -6 201.5 -39t124.5 -88t64.5 -129t22.5 -158v-35v-139q-10 4 -32.5 12.5t-32.5 12.5q-29 10 -42.5 33.5t-17.5 52.5v28q-4 168 -86 246t-250 78h-34q-172 0 -253 -79t-83 -247v-219q45 39 116.5 62.5 t172.5 27.5h131q113 -6 189.5 -34.5t124.5 -76.5t70.5 -111.5t26.5 -139.5v-182q-4 -86 -22.5 -160t-64.5 -129t-125 -88t-201 -39h-131q-123 6 -202 39t-125 88t-64.5 129t-20.5 160zM205 449q2 -168 83 -248t253 -80h34q168 0 251 80t85 248v71q-2 80 -17 138.5t-49 96.5 t-89.5 56t-137.5 18h-118q-84 0 -140.5 -18t-90 -56t-49 -98.5t-15.5 -144.5v-63z" />
<glyph unicode="7" horiz-adv-x="1159" d="M104 1067v395q0 23 29 41.5t57 20.5h807q6 0 7 -2q4 -10 18 -33t18 -31q27 -55 -12 -108l-625 -1332q-8 0 -8 7q-4 10 -23.5 34.5t-23.5 32.5q-8 12 -7 32.5t5 41.5q4 23 10 47l543 1182h-40h-92h-127t-143.5 -1t-143 -2t-126.5 -1v-213q0 -29 -16 -52.5t-45 -33.5 q-8 -4 -29.5 -13.5t-32.5 -11.5z" />
<glyph unicode="8" horiz-adv-x="1230" d="M68 461q0 66 9 128t29.5 115.5t55.5 94.5t86 63q-80 96 -76 268q2 82 15.5 153t49 123t100 83t169.5 31h203q104 0 168.5 -31t99.5 -83t47 -123t14 -153q2 -86 -14 -152.5t-57 -115.5q51 -23 85.5 -63.5t55 -94t30 -116t9.5 -127.5q0 -100 -14.5 -183t-49 -142.5 t-95 -92.5t-152.5 -33h-457q-94 0 -154.5 33t-95.5 92.5t-48 142t-13 183.5zM213 471q0 -59 4 -117.5t21.5 -103.5t51.5 -74t89 -29h457q55 0 87.5 29t49 74t21.5 103.5t3 117.5q0 55 -7 105.5t-24.5 88t-49 61.5t-80.5 24h-457q-49 0 -81 -24t-50.5 -61.5t-25.5 -88 t-9 -105.5zM301 1130q0 -123 35 -176t121 -63h301q82 10 118.5 63.5t36.5 175.5q0 98 -23.5 148.5t-57 72t-72.5 23.5t-70 2h-166q-31 0 -69.5 -2t-72.5 -23.5t-57.5 -71.5t-23.5 -149z" />
<glyph unicode="9" horiz-adv-x="1087" d="M69 985q1 31 1 62v75q4 84 22.5 158t63.5 129t123.5 88t201.5 39h131q123 -6 203 -39t126 -88t64.5 -129t22.5 -158v-28v-45v-639q-4 -84 -22.5 -158t-64.5 -129t-126 -88t-203 -39h-131q-123 6 -201.5 39t-123.5 88t-63.5 129t-22.5 158v34v140q10 -4 33.5 -12.5 t29.5 -12.5q29 -10 44.5 -32.5t17.5 -51.5v-31q4 -168 85.5 -245.5t249.5 -77.5h37q168 0 250 79t86 246v224q-47 -41 -117.5 -64.5t-175.5 -30.5h-129q-115 6 -191.5 35t-124.5 77t-69.5 111.5t-25.5 139.5q-2 16 -1 47zM195 1012q4 -160 66.5 -235t225.5 -75h117 q84 0 141.5 18.5t91 57.5t49 98.5t17.5 143.5v65q-4 166 -86 246t-250 80h-37q-168 0 -249.5 -80t-85.5 -246v-73z" />
<glyph unicode=":" horiz-adv-x="458" d="M143 113v63v4v2v6v66q0 14 13 14h145q14 0 14 -14v-16v-111v-14q0 -14 -14 -15h-145q-12 0 -13 15zM143 741v66v6v6v66q0 12 13 12h145q14 0 14 -12v-17v-110v-17q0 -12 -14 -12h-145q-12 0 -13 12z" />
<glyph unicode=";" horiz-adv-x="612" d="M227 225v199q0 14 13 14h145q12 0 12 -14v-49q-4 -39 -24.5 -70t-55.5 -45q-6 -2 -18 -7t-26.5 -10t-27 -10.5t-18.5 -7.5zM227 911v66v6v6v66q0 12 13 12h145q12 0 12 -12v-17v-110v-17q0 -12 -12 -12h-145q-12 0 -13 12z" />
<glyph unicode="&#x3c;" horiz-adv-x="694" d="M113 684q-2 14 0 29q-2 14 0 26q0 23 8 39l336 293q2 2 7 4t9 -2l94 -74q4 -2 5 -7t-1 -7q-90 -70 -157 -127q-31 -25 -58.5 -49.5t-50 -44t-36 -33.5t-13.5 -18q0 -6 13.5 -22.5t35 -39t50 -50.5t57.5 -56q68 -68 155 -148q4 -2 3 -7t-5 -7l-94 -72q-4 -4 -9 -3t-9 3 l-332 332q-8 12 -8 41z" />
<glyph unicode="=" horiz-adv-x="1112" d="M158 557v76q0 6 8 6h123h252h299h73q8 0 9 -6v-76q0 -4 -9 -4h-122h-252h-299h-74q-8 0 -8 4zM158 821v76q0 4 8 4h123h252h299h73q8 0 9 -4v-76q0 -6 -9 -6h-122h-252h-299h-74q-8 0 -8 6z" />
<glyph unicode="&#x3e;" d="M325 447.5q-1 5.5 1 7.5q88 70 157 127q29 25 57.5 48t51 43.5t36 34t13.5 19.5q0 4 -13.5 20.5t-35 40t-50 51t-57.5 56.5q-68 68 -155 147q-4 2 -3 7.5t5 7.5l94 73q4 4 9 2t9 -4l332 -331q4 -6 4 -17.5t2 -23.5q0 -14 2 -29q0 -14 -2 -27q-2 -10 -3 -21t-5 -17 l-334 -293q-4 -2 -8 -3t-8 3l-94 71q-4 2 -5 7.5z" />
<glyph unicode="?" horiz-adv-x="966" d="M113 1059v33q2 94 32.5 161.5t82 111.5t118.5 64.5t141 20.5q78 0 146.5 -22.5t119 -65.5t80 -107.5t29.5 -146.5q0 -61 -13 -107.5t-37 -83t-56.5 -66.5t-69.5 -60q-41 -35 -69.5 -62t-46 -56.5t-24.5 -66.5t-7 -88v-139v-119q-10 2 -36 11.5t-36 13.5q-29 10 -44 35.5 t-20 56.5v2v164q0 55 13.5 98t35 78t49 63.5t58.5 55.5l55 49q47 39 79 88t32 127q0 109 -66.5 164t-169.5 55q-100 0 -158.5 -64.5t-66.5 -162.5q-2 -16 -2 -47v-62q0 -37 2 -76q-6 2 -16 6.5t-22.5 8.5t-24 8t-15.5 6q-33 10 -51 39t-20 61q-2 10 -2 21zM403 18v56v4v4v53 q0 12 13 12h121q10 0 10 -12v-10v-92v-15q0 -12 -10 -12h-121q-12 0 -13 12z" />
<glyph unicode="@" horiz-adv-x="1652" d="M133 743q0 328 195 523q203 207 520 207q59 0 114.5 -8.5t108.5 -24.5q293 -98 389 -391q20 -61 28.5 -126t8.5 -130q0 -53 -4 -99.5t-18 -89.5q-6 -29 -24.5 -72t-50.5 -83.5t-80 -69.5t-112 -29q-33 0 -67.5 6t-65.5 20.5t-54.5 36t-33.5 52.5q-27 -72 -89 -90.5 t-134 -18.5q-53 0 -94 15q-100 35 -156 143q-37 86 -43 213q6 186 98 279q41 43 92.5 62t114.5 19q59 0 103.5 -14t76.5 -59l11 -21v8v86q0 12 12 13l121 -4q10 0 10 -11v-43v-376l4 -62q8 -113 88 -119q111 0 135 201q2 27 4 53.5t2 55.5q0 113 -26 200q-23 80 -67 143.5 t-111 110.5q-121 86 -297 90q-115 0 -219 -43q-334 -131 -334 -553q0 -135 35.5 -243.5t111.5 -188.5q154 -166 428 -166q6 0 13 -4l174 6q-4 -10 -13.5 -34.5t-13.5 -34.5q-8 -29 -32.5 -45.5t-53.5 -20.5h-68h-4h-8q-328 0 -526 195q-201 201 -199 536zM614 721 q0 -98 29 -150q45 -82 123 -79q78 -1 119 65q37 61 37 162q0 35 -4.5 64.5t-10.5 58.5q-12 35 -37 65q-33 45 -100 45q-125 0 -149 -151q-10 -37 -7 -80z" />
<glyph unicode="A" horiz-adv-x="1214" d="M51 -12q135 375 244 674q45 127 90 250.5t80 223t58.5 164t27.5 74.5t8 18.5t8 12.5q14 29 43 29q35 0 45 -29q4 -4 8.5 -14.5t8.5 -16.5q2 -10 25.5 -74.5t58.5 -164t79 -223.5t89 -250q106 -299 241 -674h-67q-45 0 -74 32l-2 5l-2 2q-6 6 -4 6q-6 6 -6 14 q-10 8 -13 25q-6 16 -25.5 69.5t-41 114.5t-41 116.5t-27.5 78.5h-500q-8 -20 -28.5 -74.5t-42 -116t-41 -115t-25.5 -71.5q-2 -4 -5 -10.5t-7 -14.5q-10 -27 -33.5 -44t-56.5 -17h-72zM406 575h409l-205 566z" />
<glyph unicode="B" horiz-adv-x="1089" d="M111 -6v1452h460q100 0 162 -30t95.5 -80t46 -118.5t14.5 -146.5v-17q0 -152 -70 -241q49 -23 82 -61.5t52.5 -90t28.5 -112t11 -123.5q0 -96 -13 -175t-47 -136.5t-92.5 -89t-146.5 -31.5h-583zM242 127h452q51 0 83 27.5t48.5 70.5t20.5 98.5t4 110.5q0 53 -7 102.5 t-24.5 87.5t-47.5 60.5t-77 22.5h-452v-580zM242 838h374q80 10 116 63t36 170q0 92 -22.5 140.5t-55.5 68.5t-69.5 22.5t-67.5 2.5l-311 2v-469z" />
<glyph unicode="C" horiz-adv-x="1173" d="M115 416v350v285q2 82 20.5 154.5t63.5 125.5t122.5 86t198.5 39h129q121 -6 200 -42t125 -89t63.5 -115.5t17.5 -119.5v-175q-8 4 -32 12.5t-34 12.5q-27 10 -41 32.5t-18 51.5v14q-2 162 -83 228.5t-245 66.5h-37q-166 0 -245.5 -76.5t-83.5 -242.5v-111v-450 q4 -166 83.5 -243t245.5 -77h37q162 0 244 67.5t84 231.5v10q4 29 18.5 51.5t40.5 32.5q10 4 34 12.5t32 12.5v-170q0 -59 -17.5 -121.5t-63.5 -117t-125 -90.5t-200 -42h-129q-121 6 -198.5 39t-122.5 86t-63.5 125t-20.5 156z" />
<glyph unicode="D" horiz-adv-x="1146" d="M106 16v2v1430q0 2 5 6q2 2 6 2h516q121 -6 198.5 -39t122.5 -86t63.5 -125.5t22.5 -154.5v-635q-4 -84 -22.5 -156t-63.5 -125t-122.5 -86t-198.5 -39h-516q-4 0 -4 1t-2 1q-4 4 -5 4zM227 135h398q287 12 293 318v510v28v15v8q0 12 -2.5 20t-2.5 19v12q-2 6 -2 13v12 q-2 6 -2 14q-4 6 -4 18q-2 4 -2 7.5t-4 7.5q0 4 -1 8t-1 6q-4 4 -4 8t-2 8q-4 4 -4 7.5t-2 7.5q-4 2 -4 5t-2 7q-6 8 -7 12q-2 4 -4 6t-4 7q-4 4 -5 6t-5 4q-4 8 -8 12l-10 10q-4 4 -9 11q-2 0 -8 6q-4 4 -8 5t-8 5q-6 6 -8 6q-6 4 -15 8q-8 4 -10 6q-4 2 -8 4.5t-8 2.5 q-8 4 -11 6q-10 0 -18 6q-8 0 -10 2q-4 0 -9.5 2t-13.5 2q-2 2 -8 2t-11 2t-14 2h-8q-6 2 -13 2h-13h-398v-1196z" />
<glyph unicode="E" horiz-adv-x="972" d="M100 12v1403q0 6 4 6q0 4 7 4h788q-4 -10 -13 -33.5t-12 -31.5q-10 -27 -31.5 -41t-49.5 -19h-572v-548h414q10 0 10 -11v-102q0 -8 -10 -8h-414v-504h572q29 -4 50 -18.5t31 -40.5q2 -8 11.5 -32t13.5 -34h-788q-6 0 -7 4q-4 2 -4 6z" />
<glyph unicode="F" horiz-adv-x="1054" d="M129 10v176v117v201v28v213v60v49v172v18q4 86 23.5 159t67.5 128t131 87t212 34h2h381q-4 -10 -12 -33.5t-12 -34.5q-10 -27 -33 -41t-51 -18h-254q-166 0 -246 -75.5t-82 -241.5v-82v-6v-205h459q12 0 12 -8v-105q0 -8 -12 -8h-459v-473v-4v-107q0 -10 -10 -10h-107 q-10 0 -10 10z" />
<glyph unicode="G" horiz-adv-x="1110" d="M98 379v670q2 80 20.5 148.5t61.5 119.5t117 83t190 38h125q117 -6 191 -38t117 -83t60 -120t21 -148v-33v-131q-10 4 -31.5 12t-31.5 10q-53 23 -53 80q-2 4 -2 10q-2 6 -2 19q-2 158 -80 231.5t-236 73.5h-30q-160 0 -238 -75t-82 -232v-600q4 -158 82 -233t238 -75h30 q160 0 237 75t79 233v129h-166q-29 4 -50.5 17t-29.5 40q-4 10 -12.5 31.5t-10.5 32.5h377q12 0 12 -9v-34v-29v-41v-172q-4 -80 -21 -148.5t-60 -120t-117 -83t-191 -37.5h-125q-117 6 -190.5 37.5t-116.5 83t-61.5 120t-20.5 148.5z" />
<glyph unicode="H" horiz-adv-x="997" d="M53 25v168v528v526v168q8 -4 30.5 -12t31.5 -12q27 -8 41 -31t16 -49v-533h670v533q2 27 16 49t41 31q8 4 30.5 12t31.5 12v-168v-526v-528v-168q0 -10 -9 -11h-102q-8 0 -8 11v102v2v528h-670v-528v-2v-102q0 -10 -8 -11h-103q-8 0 -8 11z" />
<glyph unicode="I" horiz-adv-x="438" d="M164 18v168v529v526v168q8 -4 30.5 -12t28.5 -13q27 -8 41.5 -30.5t16.5 -48.5v-1182v-2v-103q0 -10 -9 -10h-100q-8 0 -8 10z" />
<glyph unicode="J" horiz-adv-x="1112" d="M125 401v35v129q10 -2 31.5 -10t29.5 -12q25 -10 39.5 -30.5t18.5 -49.5v-29q2 -156 78.5 -228.5t236.5 -72.5h33q80 0 129 18.5t76.5 55.5t39 94t11.5 135v969q0 10 8 10h105q2 0 2 -2q0 -4 2 -4l4 -4v-1004q-4 -80 -21.5 -147.5t-60.5 -119.5t-118 -83t-191 -37h-66 q-117 6 -190.5 37t-116.5 83t-60.5 120t-19.5 147z" />
<glyph unicode="K" horiz-adv-x="987" d="M92 20v173v538v539v170q10 -4 35 -11.5t31 -11.5q27 -10 40 -33.5t17 -50.5v-616l629 725q6 -8 20.5 -30.5t18.5 -29.5q12 -22 12 -45q0 -28 -18 -57l-416 -473l450 -801h-80q-53 0 -83 51l-375 654l-158 -179v-403v-4v-105q0 -8 -8 -8h-103q-12 0 -12 8z" />
<glyph unicode="L" horiz-adv-x="1005" d="M102 20v101v2v65v529v526v168q8 -4 31 -12t29 -13q27 -8 41 -30.5t16 -48.5v-1176h600q27 -2 48.5 -16t31.5 -41q2 -8 11.5 -31t11.5 -33h-166h-475h-5h-65h16h54h-70h-100q-6 0 -7 4q-2 2 -2 6z" />
<glyph unicode="M" horiz-adv-x="1497" d="M20 8q2 20 9 47q4 23 11 53.5t17 69.5q16 80 35 170q16 78 35.5 173t42.5 196q23 100 43 192t35.5 165t26 120t14.5 57v2q8 39 13 68t9 47l6 37q3 7 8 7q2 0 5 -1h110h2q2 -4 2 -6l306 -1057l311 1057q0 2 2 2t2 4h2h2h105h3q6 0 9 -6q2 -14 8 -37q8 -33 25 -115v-2 q2 -10 13 -57t26.5 -120t36 -165t42.5 -192q20 -100 41 -195.5t37 -173.5q19 -90 35 -170q8 -39 16.5 -69.5t12.5 -53.5q6 -27 10 -47q-12 2 -38 5t-32 3q-29 4 -48 24.5t-30 49.5l-227 1063q-84 -279 -151 -498q-29 -94 -56.5 -184t-49 -160.5t-35 -115.5t-13.5 -48l-6 -6 l-6 -6h-97q-2 0 -3 3t-5 5l-13 44t-33.5 115t-48.5 162t-54 185q-68 221 -150 504l-229 -1063q-6 -29 -26.5 -49.5t-47.5 -24.5q-8 0 -33.5 -3t-36.5 -5z" />
<glyph unicode="N" horiz-adv-x="997" d="M53 6v170v539v538v174q0 8 8 9h103h2h4v-2q0 -2 2 -4l651 -1164v1063q2 29 16.5 51.5t41.5 30.5q10 4 31.5 12.5t29.5 12.5v-1422q0 -8 -8 -8h-103q-8 0 -8 8v-2l-647 1166v-1065q-4 -29 -18.5 -51.5t-40.5 -30.5q-10 -4 -33 -12.5t-31 -12.5z" />
<glyph unicode="O" horiz-adv-x="1128" d="M106 401v625q4 82 22.5 151.5t63 123t120 85t194.5 37.5h125q119 -6 194.5 -37.5t119.5 -85t61.5 -123t21.5 -151.5v-625q-4 -82 -21.5 -151.5t-61.5 -122.5t-119.5 -85t-194.5 -38h-125q-119 6 -194.5 38t-120 85t-62.5 122.5t-23 151.5zM227 436q4 -160 83 -236.5 t239 -76.5h37q160 0 238.5 76.5t82.5 236.5v555q-4 160 -83 237t-238 77h-37q-160 0 -239 -77t-83 -237v-555z" />
<glyph unicode="P" horiz-adv-x="964" d="M115 12v1405v6q0 8 8 9h94h76h2h264q98 0 153.5 -41t84 -103.5t36 -136.5t7.5 -137q0 -59 -6.5 -131t-34 -133.5t-84 -103.5t-154.5 -42h-323v-463v-129h-123zM233 727h304q86 0 130 66.5t44 220.5q0 150 -39 222.5t-131 72.5h-84h-6h-213z" />
<glyph unicode="Q" horiz-adv-x="1224" d="M102 389v625q2 82 20.5 151.5t62.5 122.5t120 85t195 38h127q119 -6 194.5 -38t119.5 -85t61.5 -122.5t21.5 -151.5v-625q-4 -82 -22.5 -151.5t-61.5 -122.5h82q8 -4 22 -4h5q2 0 6 -1t8 -1h2l4 -5q6 0 8 -2q37 -14 53 -55q4 -10 12.5 -30.5t10.5 -24.5h-539h-114 q-119 6 -195 37.5t-120 85t-62.5 123t-20.5 151.5zM221 424q4 -160 83 -236.5t243 -76.5h33q164 0 241.5 76.5t79.5 236.5v555q-2 160 -80 236.5t-241 76.5h-33q-164 0 -243 -76.5t-83 -236.5v-555z" />
<glyph unicode="R" horiz-adv-x="1148" d="M123 16v29v127v8v1233v6q0 8 8 8h2h94h76h442q98 0 153.5 -40.5t84.5 -103t36 -136.5t7 -137q0 -45 -3 -98.5t-15.5 -103.5t-38 -95t-68.5 -76q68 -53 94.5 -134t30.5 -179v-310q-8 2 -30.5 11.5t-32.5 11.5q-27 10 -41.5 32.5t-18.5 49.5v170q-2 150 -68.5 225.5 t-207.5 81.5q-2 0 -52.5 1t-114 1h-126t-88.5 -2v-580q0 -8 -10 -8h-105q-8 0 -8 8zM246 723h477q86 0 131 66.5t45 220.5q0 150 -40 222.5t-130 72.5h-86h-6h-391v-582z" />
<glyph unicode="S" horiz-adv-x="1026" d="M14 1090q0 82 20.5 144t68 105t126 67t197.5 30h127q119 -6 195.5 -42t121.5 -92.5t62.5 -126t17.5 -139.5v-30v-136q-8 4 -30.5 12.5t-32.5 10.5q-27 10 -43.5 33.5t-18.5 52.5v27q0 170 -79.5 239.5t-239.5 69.5h-33q-82 0 -144.5 -7.5t-105.5 -31t-65.5 -68.5 t-24.5 -121q0 -35 4 -88t21 -96q10 -31 39.5 -48t68.5 -26.5t83 -14.5t81 -11q125 -16 204 -27.5t130 -27.5q109 -31 150.5 -107t41.5 -219q0 -94 -18 -167t-64.5 -123t-124 -77.5t-196.5 -34.5h-127q-119 6 -194.5 38t-119.5 85.5t-61.5 124t-19.5 152.5v31q-2 14 -2 36.5 v44.5v54q10 -2 33.5 -10.5t29.5 -12.5q29 -10 44.5 -32.5t17.5 -49.5v-30q2 -170 80.5 -239t238.5 -69h33q92 0 154.5 12.5t102.5 47.5t57.5 97t17.5 161q0 78 -33 116.5t-80 55.5q-23 10 -68 17t-96 13.5t-99 10.5t-79 8q-98 12 -164.5 28.5t-107.5 39t-61.5 53.5t-24.5 76 q-8 72 -9.5 126t-1.5 85z" />
<glyph unicode="T" horiz-adv-x="1220" d="M29 1432h1169q-4 -10 -12 -33t-12 -33q-10 -27 -33 -41t-51 -16h-416v-1299q0 -8 -8 -8h-105q-10 0 -10 8v1299h-416q-27 2 -50.5 16t-31.5 41q-4 10 -12 32.5t-12 33.5z" />
<glyph unicode="U" horiz-adv-x="1112" d="M102 397v193v-8v12v199v456v172q8 -4 32 -12t32 -10q27 -10 41 -33t18 -51v-883q2 -160 80 -236.5t242 -76.5h12q164 0 242 76.5t80 236.5v883q4 29 18 51.5t41 32.5q8 2 30.5 10t33.5 12v-1024q-4 -82 -21.5 -151.5t-61.5 -122.5t-120 -85t-195 -38h-106q-119 6 -195 38 t-120 85t-62.5 122.5t-20.5 151.5z" />
<glyph unicode="V" horiz-adv-x="1294" d="M98 1427h68q20 0 38.5 -9t31.5 -23q4 -2 4 -4t2 -5q0 -2 2 -2q0 -2 1 -2t1 -2q2 -2 3 -5t5 -7q2 -6 4 -11t4 -11q2 -8 20.5 -57.5t46 -125.5t61.5 -169t69 -189q82 -227 182 -510q100 281 182 506q35 96 69 189t61.5 168t45 124t21.5 57q4 6 5 13.5t5 13.5q10 27 33.5 44 t54.5 17q8 0 34 -1t36 -1q-131 -367 -238 -659q-45 -125 -89 -246t-78.5 -218t-58.5 -160.5t-26 -71.5q-4 -12 -6 -19.5t-6 -11.5q-14 -29 -45 -29q-35 0 -45 29q-2 4 -5 13t-7 18q-4 8 -26.5 71.5t-57.5 160.5t-78 218t-88 246q-104 293 -236 661z" />
<glyph unicode="W" horiz-adv-x="1452" d="M-2 1391q8 0 32.5 -3.5t35.5 -7.5q29 -4 48 -23.5t25 -43.5l230 -1057q82 274 149 492q29 92 56.5 181t49 159.5t35 115.5t15.5 49q0 8 6 9h98q6 0 6 -7l299 -999l226 1057q10 25 29.5 44t47.5 23q10 4 35 7.5t33 3.5q-4 -20 -10 -45q-4 -23 -10.5 -54.5t-14.5 -70.5 q-16 -80 -37 -168q-16 -76 -36.5 -171.5t-40.5 -195.5q-23 -98 -42.5 -190.5t-35 -165t-25.5 -120.5t-12 -56v-2q-10 -39 -15.5 -66t-9.5 -45q-6 -23 -8 -35q0 -10 -10 -10h-109h-2v4h-4q-2 0 -2 2l-303 1055l-305 -1055q-4 0 -4 -1t-2 -1v-4h-2h-105q-12 0 -12 10 q-2 12 -8 35q-4 18 -11.5 45t-15.5 66v2q-2 8 -12 56t-25.5 120.5t-36 165t-41.5 190.5q-23 100 -42 195.5t-35 171.5q-21 88 -37 168q-8 39 -14.5 70.5t-10.5 54.5q-6 25 -10 45z" />
<glyph unicode="X" horiz-adv-x="1148" d="M119 99.5q0 27.5 16 50.5l373 552l-373 551q-16 26 -16.5 51.5t16.5 51.5q8 6 21.5 25.5t19.5 29.5l406 -600l407 600q4 -10 18.5 -29.5t18.5 -25.5q17 -24 17 -49q0 -27 -13 -54l-373 -551l373 -552q13 -25 13 -53q0 -26 -17 -48q-4 -10 -18.5 -29.5t-18.5 -25.5 l-407 598l-406 -598q-6 6 -19.5 25.5t-21.5 29.5q-16 23 -16 50.5z" />
<glyph unicode="Y" horiz-adv-x="1216" d="M113 1454h63q23 0 55.5 -6t44.5 -23q2 -4 18.5 -31.5t42 -69.5t57.5 -93t65 -105q76 -125 170 -280q90 154 159 278q31 51 60 102.5t51.5 92.5t37.5 66.5t15 27.5q14 25 41 33t58 8h69q-106 -182 -194 -338q-37 -66 -75 -132t-69.5 -124.5t-55.5 -102.5t-34 -65v-538v-2 v-107q0 -8 -8 -8h-106q-8 0 -9 8v174v242v143v78q-6 12 -28.5 52t-55 97.5t-73.5 125t-82 137.5q-98 162 -217 360z" />
<glyph unicode="Z" horiz-adv-x="1433" d="M157 130q3 26 19 48l940 1122h-917q4 8 12 33t12 31q10 27 33 41t49 18h901q6 0 6 -4q4 -10 17.5 -30.5t17.5 -26.5q11 -23 11 -45q0 -30 -21 -57l-940 -1127h920q-4 -8 -12.5 -32.5t-12.5 -30.5q-10 -27 -32.5 -41.5t-49.5 -18.5h-901q-10 0 -10 6q-4 10 -15.5 32 t-15.5 28q-12 22 -12 44q0 5 1 10z" />
<glyph unicode="[" horiz-adv-x="815" d="M125 16v105q0 2 4 4l-4 4v1235v2v2v107q0 8 12 8h174h2h197h174q-4 -8 -12 -32t-10 -32q-10 -29 -33 -42t-51 -17h-326v-64v-551v-548v-66h326q29 -2 51 -17.5t33 -43.5q2 -8 10 -32t12 -32h-174h-197h-2h-174q-12 0 -12 10z" />
<glyph unicode="\" horiz-adv-x="1017" d="M131 1413h17.5t23.5 1t23.5 1h15.5q31 4 57.5 -13.5t42.5 -43.5l555 -1280q6 -10 -4 -17l-108 -45q-4 -4 -8.5 -2t-4.5 6z" />
<glyph unicode="]" horiz-adv-x="911" d="M166 10q4 8 13 32t14 32q8 29 31.5 44t51.5 17h326v62q-4 0 -4 2v2v547v552q4 16 4 33v31h-326q-29 4 -52 17.5t-31 41.5q-4 8 -13.5 32t-13.5 32h176h197h178q8 0 8 -8v-107v-2v-6v-1231v-4v-2v-2v-105q0 -10 -8 -10h-178h-197h-176z" />
<glyph unicode="^" horiz-adv-x="933" d="M133 1034q-6 10 2 17l258 147q23 16 49 16l2 3h9h8l2 -3q27 0 49 -16l258 -147q8 -6 2 -17l-67 -86q-2 -8 -15 -4q-59 37 -110 66q-43 25 -81 46t-46 21q-10 0 -49 -21.5t-80 -45.5q-51 -29 -109 -66q-10 -6 -14 4z" />
<glyph unicode="_" horiz-adv-x="962" d="M152 4v66q0 6 4 6h112h228h266h72q4 0 4 -6v-66q0 -6 -4 -6h-113h-227h-267h-71q-4 0 -4 6z" />
<glyph unicode="`" horiz-adv-x="337" d="M70 698q0 4 5 23.5t7 26.5l186 -121q2 -2 2 -11l-43 -63q-4 -6 -8 -4l-121 78q-35 29 -28 71z" />
<glyph unicode="a" horiz-adv-x="1226" d="M61 -12q135 375 244 674q45 127 90 250.5t80 223t58.5 164t27.5 74.5t8 18.5t9 12.5q14 29 43 29q35 0 45 -29q4 -4 8 -14.5t8 -16.5q2 -10 25.5 -74.5t58.5 -164t79 -223.5t89 -250q106 -299 242 -674h-68q-45 0 -74 32l-2 5l-2 2q-6 6 -4 6q-6 6 -6 14q-10 8 -12 25 q-6 16 -25.5 69.5t-41 114.5t-41 116.5t-28.5 78.5h-499q-8 -20 -28.5 -74.5t-42 -116t-41 -115t-25.5 -71.5q-2 -4 -5.5 -10.5t-7.5 -14.5q-10 -27 -33.5 -44t-56.5 -17h-72zM416 575h409l-204 566z" />
<glyph unicode="b" horiz-adv-x="1052" d="M96 -6v1452h461q100 0 161.5 -30t95.5 -80t46 -118.5t14 -146.5v-20q0 -149 -69 -238q49 -23 82 -61.5t52 -90t28.5 -112t11.5 -123.5q0 -96 -13.5 -175t-47 -136.5t-92 -89t-146.5 -31.5h-584zM227 127h453q51 0 83 27.5t48 70.5t20.5 98.5t4.5 110.5q0 53 -7.5 102.5 t-25 87.5t-47 60.5t-76.5 22.5h-453v-580zM227 838h375q80 10 116 63t36 170q0 92 -22.5 140.5t-55.5 68.5t-70 22.5t-67 2.5l-312 2v-469z" />
<glyph unicode="c" horiz-adv-x="1122" d="M96 416v350v285q2 82 20.5 154.5t63.5 125.5t123 86t199 39h129q121 -6 199.5 -42t124.5 -89t63.5 -115.5t17.5 -119.5v-175q-8 4 -31.5 12.5t-33.5 12.5q-27 10 -41.5 32.5t-18.5 51.5v14q-2 162 -82.5 228.5t-244.5 66.5h-37q-166 0 -246 -76.5t-84 -242.5v-111v-450 q4 -166 84 -243t246 -77h37q162 0 243.5 67.5t83.5 231.5v10q4 29 18.5 51.5t41.5 32.5q10 4 33.5 12.5t31.5 12.5v-170q0 -59 -17.5 -121.5t-63.5 -117t-124.5 -90.5t-199.5 -42h-129q-121 6 -199 39t-123 86t-63.5 125t-20.5 156z" />
<glyph unicode="d" horiz-adv-x="1138" d="M106 16v2v1430q0 2 5 6q2 2 6 2h516q121 -6 198.5 -39t122.5 -86t63.5 -125.5t22.5 -154.5v-635q-4 -84 -22.5 -156t-63.5 -125t-122.5 -86t-198.5 -39h-516q-4 0 -4 1t-2 1q-4 4 -5 4zM227 135h398q287 12 293 318v510v28v15v8q0 12 -2.5 20t-2.5 19v12q-2 6 -2 13v12 q-2 6 -2 14q-4 6 -4 18q-2 4 -2 7.5t-4 7.5q0 4 -1 8t-1 6q-4 4 -4 8t-2 8q-4 4 -4 7.5t-2 7.5q-4 2 -4 5t-2 7q-6 8 -7 12q-2 4 -4 6t-4 7q-4 4 -5 6t-5 4q-4 8 -8 12l-10 10q-4 4 -9 11q-2 0 -8 6q-4 4 -8 5t-8 5q-6 6 -8 6q-6 4 -15 8q-8 4 -10 6q-4 2 -8 4.5t-8 2.5 q-8 4 -11 6q-10 0 -18 6q-8 0 -10 2q-4 0 -9.5 2t-13.5 2q-2 2 -8 2t-11 2t-14 2h-8q-6 2 -13 2h-13h-398v-1196z" />
<glyph unicode="e" horiz-adv-x="962" d="M100 12v1403q0 6 4 6q0 4 7 4h788q-4 -10 -13 -33.5t-12 -31.5q-10 -27 -31.5 -41t-49.5 -19h-572v-548h414q10 0 10 -11v-102q0 -8 -10 -8h-414v-504h572q29 -4 50 -18.5t31 -40.5q2 -8 11.5 -32t13.5 -34h-788q-6 0 -7 4q-4 2 -4 6z" />
<glyph unicode="f" horiz-adv-x="987" d="M90 10v176v117v201v28v213v60v49v172v18q4 86 23.5 159t67.5 128t131 87t212 34h2h381q-4 -10 -12 -33.5t-12 -34.5q-10 -27 -33 -41t-51 -18h-254q-166 0 -246 -75.5t-82 -241.5v-82v-6v-205h459q12 0 12 -8v-105q0 -8 -12 -8h-459v-473v-4v-107q0 -10 -10 -10h-107 q-10 0 -10 10z" />
<glyph unicode="g" horiz-adv-x="1079" d="M86 379v670q2 80 20.5 148.5t61.5 119.5t116.5 83t190.5 38h125q117 -6 190.5 -38t116.5 -83t60.5 -120t21.5 -148v-33v-131q-10 4 -31.5 12t-31.5 10q-53 23 -54 80q-2 4 -2 10q-2 6 -2 19q-2 158 -79.5 231.5t-235.5 73.5h-31q-160 0 -237.5 -75t-81.5 -232v-600 q4 -158 81.5 -233t237.5 -75h31q160 0 236.5 75t78.5 233v129h-166q-29 4 -50 17t-29 40q-4 10 -12.5 31.5t-10.5 32.5h377q12 0 12 -9v-34v-29v-41v-172q-4 -80 -21.5 -148.5t-60.5 -120t-116.5 -83t-190.5 -37.5h-125q-117 6 -190.5 37.5t-116.5 83t-61.5 120t-20.5 148.5 z" />
<glyph unicode="h" horiz-adv-x="985" d="M49 25v168v528v526v168q8 -4 30.5 -12t31.5 -12q27 -8 41 -31t16 -49v-533h670v533q2 27 16 49t41 31q8 4 30.5 12t30.5 12v-168v-526v-528v-168q0 -10 -8 -11h-102q-8 0 -8 11v102v2v528h-670v-528v-2v-102q0 -10 -8 -11h-103q-8 0 -8 11z" />
<glyph unicode="i" horiz-adv-x="354" d="M133 18v168v529v526v168q8 -4 30.5 -12t29.5 -13q27 -8 41 -30.5t16 -48.5v-1182v-2v-103q0 -10 -8 -10h-101q-8 0 -8 10z" />
<glyph unicode="j" horiz-adv-x="1040" d="M106 393v35v129q10 -2 32 -10t30 -12q25 -10 39 -31t18 -49v-29q2 -156 79 -228.5t237 -72.5h32q80 0 129.5 18.5t77 55.5t38.5 94t11 135v969q0 10 9 10h104q2 0 2 -2q0 -4 2 -4l4 -4v-1004q-4 -80 -21.5 -147.5t-60.5 -119.5t-117.5 -83t-191.5 -37h-65q-117 6 -191 37 t-117 83t-60 119.5t-20 147.5z" />
<glyph unicode="k" horiz-adv-x="970" d="M92 20v173v538v539v170q10 -4 35 -11.5t31 -11.5q27 -10 40 -33.5t17 -50.5v-616l629 725q6 -8 20.5 -30.5t18.5 -29.5q12 -22 12 -45q0 -28 -18 -57l-416 -473l450 -801h-80q-53 0 -83 51l-375 654l-158 -179v-403v-4v-105q0 -8 -8 -8h-103q-12 0 -12 8z" />
<glyph unicode="l" d="M102 20v101v2v65v529v526v168q8 -4 31 -12t29 -13q27 -8 41 -30.5t16 -48.5v-1176h600q27 -2 48.5 -16t31.5 -41q2 -8 11.5 -31t11.5 -33h-166h-475h-5h-65h16h54h-70h-100q-6 0 -7 4q-2 2 -2 6z" />
<glyph unicode="m" horiz-adv-x="1480" d="M-2 8q2 20 8 47q4 23 11.5 53.5t17.5 69.5q16 80 35 170q16 78 35.5 173t41.5 196q23 100 43.5 192t36 165t25.5 120t14 57v2q8 39 13.5 68t9.5 47l6 37q3 7 8 7q2 0 4 -1h111h2q2 -4 2 -6l305 -1057l311 1057q0 2 2 2t2 4h2h3h104h3q6 0 9 -6q2 -14 8 -37q8 -33 25 -115 v-2q2 -10 13.5 -57t26.5 -120t35.5 -165t43.5 -192q20 -100 40.5 -195.5t37.5 -173.5l34 -170q8 -39 16.5 -69.5t12.5 -53.5q6 -27 10 -47q-12 2 -37.5 5t-31.5 3q-29 4 -48.5 24.5t-29.5 49.5l-227 1063q-84 -279 -152 -498q-29 -94 -56.5 -184t-49 -160.5t-35 -115.5 t-13.5 -48l-6 -6l-6 -6h-96q-2 0 -3 3t-5 5l-14 44q-13 44 -33.5 115t-48 162t-54.5 185q-68 221 -149 504l-230 -1063q-6 -29 -26.5 -49.5t-46.5 -24.5q-8 0 -34 -3t-36 -5z" />
<glyph unicode="n" d="M53 6v170v539v538v174q0 8 8 9h103h2h4v-2q0 -2 2 -4l651 -1164v1063q2 29 16.5 51.5t41.5 30.5q10 4 31.5 12.5t29.5 12.5v-1422q0 -8 -8 -8h-103q-8 0 -8 8v-2l-647 1166v-1065q-4 -29 -18.5 -51.5t-40.5 -30.5q-10 -4 -33 -12.5t-31 -12.5z" />
<glyph unicode="o" horiz-adv-x="1071" d="M80 401v625q4 82 22.5 151.5t62.5 123t119.5 85t194.5 37.5h125q119 -6 194.5 -37.5t120 -85t61.5 -123t21 -151.5v-625q-4 -82 -21 -151.5t-61.5 -122.5t-120 -85t-194.5 -38h-125q-119 6 -194.5 38t-119.5 85t-62.5 122.5t-22.5 151.5zM201 436q4 -160 82.5 -236.5 t238.5 -76.5h37q160 0 239 76.5t83 236.5v555q-4 160 -83 237t-239 77h-37q-160 0 -238.5 -77t-82.5 -237v-555z" />
<glyph unicode="p" horiz-adv-x="882" d="M80 12v1405v6q0 8 8 9h94h76h2h264q98 0 153.5 -41t84.5 -103.5t36 -136.5t7 -137q0 -59 -6 -131t-34 -133.5t-84 -103.5t-155 -42h-323v-463v-129h-123zM199 727h303q86 0 130 66.5t44 220.5q0 150 -39 222.5t-131 72.5h-84h-6h-213z" />
<glyph unicode="q" horiz-adv-x="1239" d="M102 389v625q2 82 20.5 151.5t62.5 122.5t120 85t195 38h127q119 -6 194.5 -38t119.5 -85t61.5 -122.5t21.5 -151.5v-625q-4 -82 -22.5 -151.5t-61.5 -122.5h82q8 -4 22 -4h5q2 0 6 -1t8 -1h2l4 -5q6 0 8 -2q37 -14 53 -55q4 -10 12.5 -30.5t10.5 -24.5h-539h-114 q-119 6 -195 37.5t-120 85t-62.5 123t-20.5 151.5zM221 424q4 -160 83 -236.5t243 -76.5h33q164 0 241.5 76.5t79.5 236.5v555q-2 160 -80 236.5t-241 76.5h-33q-164 0 -243 -76.5t-83 -236.5v-555z" />
<glyph unicode="r" horiz-adv-x="1091" d="M100 16v29v127v8v1233v6q0 8 9 8h2h94h76h442q98 0 153.5 -40.5t84 -103t36 -136.5t7.5 -137q0 -45 -3.5 -98.5t-15.5 -103.5t-37.5 -95t-68.5 -76q68 -53 94 -134t31 -179v-310q-8 2 -31 11.5t-33 11.5q-27 10 -41 32.5t-18 49.5v170q-2 150 -69 225.5t-208 81.5 q-2 0 -52 1t-113.5 1h-126t-89.5 -2v-580q0 -8 -10 -8h-104q-8 0 -9 8zM223 723h477q86 0 131.5 66.5t45.5 220.5q0 150 -40 222.5t-130 72.5h-86h-7h-391v-582z" />
<glyph unicode="s" horiz-adv-x="1034" d="M33 1090q0 82 20.5 144t67.5 105t126 67t197 30h127q119 -6 196 -42t122 -92.5t62.5 -126t17.5 -139.5v-30v-136q-8 4 -31 12.5t-33 10.5q-27 10 -43 33.5t-18 52.5v27q0 170 -80 239.5t-240 69.5h-32q-82 0 -144.5 -7.5t-105.5 -31t-65.5 -68.5t-24.5 -121q0 -35 4 -88 t20 -96q10 -31 40 -48t69 -26.5t83 -14.5t81 -11q125 -16 203.5 -27.5t129.5 -27.5q109 -31 151 -107t42 -219q0 -94 -18.5 -167t-64.5 -123t-124 -77.5t-197 -34.5h-127q-119 6 -194.5 38t-119.5 85.5t-61.5 124t-19.5 152.5v31q-2 14 -2 36.5v44.5v54q10 -2 33.5 -10.5 t30.5 -12.5q29 -10 44 -32.5t17 -49.5v-30q2 -170 81 -239t239 -69h32q92 0 154.5 12.5t102.5 47.5t57.5 97t17.5 161q0 78 -32.5 116.5t-80.5 55.5q-23 10 -67.5 17t-96 13.5t-99.5 10.5t-79 8q-98 12 -164.5 28.5t-107.5 39t-61.5 53.5t-24.5 76q-8 72 -9 126t-1 85z" />
<glyph unicode="t" horiz-adv-x="1239" d="M39 1432h1169q-4 -10 -12 -33t-12 -33q-10 -27 -33 -41t-51 -16h-416v-1299q0 -8 -8 -8h-105q-10 0 -10 8v1299h-416q-27 2 -50 16t-32 41q-4 10 -12 32.5t-12 33.5z" />
<glyph unicode="u" horiz-adv-x="1075" d="M102 397v193v-8v12v199v456v172q8 -4 32 -12t32 -10q27 -10 41 -33t18 -51v-883q2 -160 80 -236.5t242 -76.5h12q164 0 242 76.5t80 236.5v883q4 29 18 51.5t41 32.5q8 2 30.5 10t33.5 12v-1024q-4 -82 -21.5 -151.5t-61.5 -122.5t-120 -85t-195 -38h-106q-119 6 -195 38 t-120 85t-62.5 122.5t-20.5 151.5z" />
<glyph unicode="v" horiz-adv-x="1286" d="M109 1427h67q20 0 38.5 -9t31.5 -23q4 -2 4 -4t2 -5q0 -2 2 -2q0 -2 1 -2t1 -2q2 -2 3 -5t5 -7q2 -6 4 -11t4 -11q2 -8 20.5 -57.5t46.5 -125.5t61.5 -169t68.5 -189q82 -227 182 -510q100 281 183 506q35 96 68.5 189t61 168t45 124t21.5 57q4 6 5 13.5t5 13.5 q10 27 33.5 44t54.5 17q8 0 34 -1t36 -1q-131 -367 -237 -659q-45 -125 -89.5 -246t-79 -218t-58 -160.5t-25.5 -71.5l-6.5 -19.5t-6.5 -11.5q-14 -29 -45 -29q-35 0 -45 29q-2 4 -5 13t-7 18q-4 8 -26.5 71.5t-57.5 160.5t-78 218t-88 246q-104 293 -235 661z" />
<glyph unicode="w" horiz-adv-x="1468" d="M4 1391q8 0 32.5 -3.5t35.5 -7.5q29 -4 48 -23.5t25 -43.5l230 -1057q82 274 149 492q29 92 56.5 181t49 159.5t35 115.5t15.5 49q0 8 6 9h98q6 0 7 -7l299 -999l225 1057q10 25 29.5 44t48.5 23q10 4 34.5 7.5t32.5 3.5q-4 -20 -10 -45q-4 -23 -10 -54.5t-15 -70.5 q-16 -80 -36 -168q-16 -76 -37 -171.5t-41 -195.5q-23 -98 -42.5 -190.5t-34.5 -165t-25.5 -120.5t-12.5 -56v-2q-10 -39 -15 -66t-10 -45q-6 -23 -8 -35q0 -10 -10 -10h-109h-2v4h-4q-2 0 -2 2l-303 1055l-305 -1055q-4 0 -4 -1t-2 -1v-4h-2h-105q-12 0 -12 10q-2 12 -8 35 q-4 18 -11.5 45t-15.5 66v2q-2 8 -12 56t-25.5 120.5t-36 165t-40.5 190.5q-23 100 -42.5 195.5t-35.5 171.5q-21 88 -37 168q-8 39 -14.5 70.5t-10.5 54.5q-6 25 -10 45z" />
<glyph unicode="x" horiz-adv-x="1148" d="M119 99.5q0 27.5 16 50.5l373 552l-373 551q-16 26 -16.5 51.5t16.5 51.5q8 6 21.5 25.5t19.5 29.5l406 -600l407 600q4 -10 18.5 -29.5t18.5 -25.5q17 -24 17 -49q0 -27 -13 -54l-373 -551l373 -552q13 -25 13 -53q0 -26 -17 -48q-4 -10 -18.5 -29.5t-18.5 -25.5 l-407 598l-406 -598q-6 6 -19.5 25.5t-21.5 29.5q-16 23 -16 50.5z" />
<glyph unicode="y" horiz-adv-x="1218" d="M113 1454h63q23 0 55.5 -6t44.5 -23q2 -4 18.5 -31.5t42 -69.5t57.5 -93t65 -105q76 -125 170 -280q90 154 159 278q31 51 60 102.5t51.5 92.5t37.5 66.5t15 27.5q14 25 41 33t58 8h69q-106 -182 -194 -338q-37 -66 -75 -132t-69.5 -124.5t-55.5 -102.5t-34 -65v-538v-2 v-107q0 -8 -8 -8h-106q-8 0 -9 8v174v242v143v78q-6 12 -28.5 52t-55 97.5t-73.5 125t-82 137.5q-98 162 -217 360z" />
<glyph unicode="z" horiz-adv-x="1206" d="M48 130q3 26 20 48l940 1122h-918q4 8 12.5 33t12.5 31q10 27 32.5 41t49.5 18h901q6 0 6 -4q4 -10 17.5 -30.5t17.5 -26.5q11 -23 11 -44q0 -30 -22 -58l-940 -1127h920q-4 -8 -12.5 -32.5t-12.5 -30.5q-10 -27 -32.5 -41.5t-49.5 -18.5h-901q-10 0 -10 6 q-4 10 -15.5 32t-15.5 28q-12 22 -12 44q0 5 1 10z" />
<glyph unicode="{" horiz-adv-x="907" d="M78 631v147q0 4 6 4h68h2h16q4 0 5 -1t5 -1v181q4 92 33 175t84 144t138 98t194 37h129q-2 -4 -8.5 -15t-12.5 -23.5t-11 -23t-7 -14.5q-31 -55 -88 -65q-156 -12 -232.5 -98t-79.5 -256v-160q-2 -2 -2 -4q0 -23 -26.5 -35t-52.5 -16q27 -4 53 -16.5t26 -35.5l2 -4v-160 q2 -170 79 -256t233 -98q57 -10 88 -65q2 -4 7 -14.5t11 -23t12.5 -23.5t8.5 -15h-129q-111 0 -194 37t-138 98t-84 144t-33 176v180q-4 0 -5 -1t-5 -1h-16h-2h-68q-6 0 -6 4z" />
<glyph unicode="|" horiz-adv-x="630" d="M233 23v370v6v781v245q0 12 11 13h118q10 0 11 -13v-368v-15v-770v-249q0 -10 -11 -11h-118q-10 0 -11 11z" />
<glyph unicode="}" horiz-adv-x="925" d="M131 -23q4 10 19.5 39t23.5 37q25 55 84 66q156 12 233.5 98t79.5 256v160v4q4 23 30 35t48 16q-23 4 -48.5 16.5t-29.5 34.5v4v160q-2 170 -79.5 256t-233.5 98q-59 10 -84 66q-8 8 -23.5 37t-19.5 39h129q111 0 194 -37t138 -98.5t84 -144.5t33 -175v-180q4 0 6 1t6 1 h16h70q6 0 6 -4v-148q0 -4 -6 -4h-70h-16q-4 0 -6 1t-6 1v-180q-4 -92 -33 -175t-84 -144.5t-138 -98.5t-194 -37h-129z" />
<glyph unicode="~" d="M261 552q5 28 23.5 53.5t51.5 45t78 19.5q31 0 59.5 -11.5t56.5 -27.5q29 -16 60 -28.5t69 -12.5q23 0 48.5 8t42.5 37q4 4 7 9t7 11q4 8 10 17q4 -6 13.5 -21.5t13.5 -19.5q12 -33 2 -59.5t-31.5 -45t-52.5 -29t-57 -10.5q-33 0 -66 4.5t-68 20.5q-33 12 -62.5 25.5 t-51.5 13.5q-23 0 -42.5 -15.5t-35.5 -31.5q-18 -20 -35 -45q-6 8 -19.5 27.5t-17.5 23.5q-8 14 -3 42z" />
<glyph unicode="&#xa0;" />
<glyph unicode="&#xa2;" />
<glyph unicode="&#xa3;" />
<glyph unicode="&#xa5;" />
<glyph unicode="&#xa8;" />
<glyph unicode="&#xa9;" />
<glyph unicode="&#xab;" />
<glyph unicode="&#xad;" horiz-adv-x="927" d="M125 641v70q0 6 6 6h115h231h273h71q6 0 6 -6v-70q0 -6 -6 -6h-114h-232h-272h-72q-6 0 -6 6z" />
<glyph unicode="&#xae;" />
<glyph unicode="&#xb4;" horiz-adv-x="358" d="M72 819q-4 4 0 8l186 121q2 -6 7 -24.5t5 -24.5q6 -45 -28 -72l-119 -77q-8 0 -10 4z" />
<glyph unicode="&#xb8;" />
<glyph unicode="&#xbb;" />
<glyph unicode="&#x2c6;" horiz-adv-x="686" d="M119 709q-6 4 0 10l186 106q10 4 17.5 8.5t17.5 4.5h2h6h6h2q10 0 17.5 -4.5t17.5 -8.5l184 -106q6 -6 3 -10l-50 -64q-4 -6 -10 0q-43 25 -80 45q-31 16 -58.5 31.5t-31.5 15.5q-8 0 -35.5 -15t-58.5 -32q-37 -20 -78 -45q-4 -8 -12 0z" />
<glyph unicode="&#x2dc;" horiz-adv-x="815" d="M108 677q5 28 23.5 53.5t51 45t77.5 19.5q31 0 59.5 -11.5t57.5 -27.5t59.5 -28.5t69.5 -12.5q23 0 48.5 8t41.5 37q4 4 7 9t7 11q4 8 11 17q4 -6 13 -21.5t13 -19.5q12 -33 2 -59.5t-31.5 -45t-52 -29t-57.5 -10.5q-33 0 -65.5 4.5t-67.5 20.5q-33 12 -62.5 25.5 t-52.5 13.5t-42 -15.5t-36 -31.5q-18 -20 -35 -45q-6 8 -19 27.5t-17 23.5q-8 14 -3 42z" />
<glyph unicode="&#x2000;" horiz-adv-x="830" />
<glyph unicode="&#x2001;" horiz-adv-x="1661" />
<glyph unicode="&#x2002;" horiz-adv-x="830" />
<glyph unicode="&#x2003;" horiz-adv-x="1661" />
<glyph unicode="&#x2004;" horiz-adv-x="553" />
<glyph unicode="&#x2005;" horiz-adv-x="415" />
<glyph unicode="&#x2006;" horiz-adv-x="276" />
<glyph unicode="&#x2007;" horiz-adv-x="276" />
<glyph unicode="&#x2008;" horiz-adv-x="207" />
<glyph unicode="&#x2009;" horiz-adv-x="332" />
<glyph unicode="&#x200a;" horiz-adv-x="92" />
<glyph unicode="&#x2010;" horiz-adv-x="927" d="M125 641v70q0 6 6 6h115h231h273h71q6 0 6 -6v-70q0 -6 -6 -6h-114h-232h-272h-72q-6 0 -6 6z" />
<glyph unicode="&#x2011;" horiz-adv-x="927" d="M125 641v70q0 6 6 6h115h231h273h71q6 0 6 -6v-70q0 -6 -6 -6h-114h-232h-272h-72q-6 0 -6 6z" />
<glyph unicode="&#x2012;" horiz-adv-x="927" d="M125 641v70q0 6 6 6h115h231h273h71q6 0 6 -6v-70q0 -6 -6 -6h-114h-232h-272h-72q-6 0 -6 6z" />
<glyph unicode="&#x2013;" />
<glyph unicode="&#x2014;" />
<glyph unicode="&#x2018;" />
<glyph unicode="&#x2019;" />
<glyph unicode="&#x201a;" horiz-adv-x="546" d="M260 57v160q0 12 10 12h119q10 0 10 -12v-37q-2 -33 -18 -59.5t-49 -36.5q-8 -4 -35 -13.5t-37 -13.5z" />
<glyph unicode="&#x201c;" horiz-adv-x="655" d="M129 1292v94q0 14 10 15h131q12 0 13 -15v-229q-6 2 -17.5 6t-24 9.5t-23.5 8.5t-17 5q-35 12 -52.5 40.5t-19.5 65.5zM375 1292v94q0 14 12 15h129q12 0 12 -15v-229q-4 2 -15 6t-23.5 9.5t-23.5 8.5t-17 5q-35 12 -53.5 40.5t-20.5 65.5z" />
<glyph unicode="&#x201d;" horiz-adv-x="821" d="M182 1157v229q0 14 11 15h131q12 0 12 -15v-94q-2 -37 -20.5 -65.5t-53.5 -40.5q-6 -2 -17.5 -5t-23.5 -8.5t-23.5 -9.5t-15.5 -6zM428 1157v229q0 14 12 15h131q10 0 11 -15v-94q-2 -37 -21.5 -65.5t-50.5 -40.5q-6 -2 -17.5 -5t-23.5 -8.5t-23.5 -9.5t-17.5 -6z" />
<glyph unicode="&#x201e;" />
<glyph unicode="&#x2026;" />
<glyph unicode="&#x202f;" horiz-adv-x="332" />
<glyph unicode="&#x2039;" />
<glyph unicode="&#x203a;" />
<glyph unicode="&#x205f;" horiz-adv-x="415" />
<glyph unicode="&#x20ac;" />
<glyph unicode="&#x2122;" />
<glyph unicode="&#x25fc;" horiz-adv-x="1413" d="M0 0v1413h1413v-1413h-1413z" />
</font>
</defs>
</svg>
